<svg width="28" height="33" viewBox="0 0 28 33" fill="none" xmlns="http://www.w3.org/2000/svg">
<path opacity="0.24" fill-rule="evenodd" clip-rule="evenodd" d="M3.66927 29.4545C1.64382 29.4545 0 27.8655 0 25.9091C0 24.6106 0.727122 23.4532 1.83849 22.835C1.83849 22.4764 1.83333 18.2256 1.83333 18.2256C1.83333 14.1418 4.66852 10.7037 8.55556 9.6765V9.36364C8.55556 8.05824 9.64997 7 11 7C12.35 7 13.4444 8.05824 13.4444 9.36364V9.6765C17.3323 10.7034 20.1667 14.1419 20.1667 18.2318V22.8454C21.2793 23.4664 22 24.619 22 25.9091C22 27.8681 20.3586 29.4545 18.3307 29.4545H14.6667C14.6646 31.413 13.0197 33 11 33C8.97496 33 7.33333 31.4143 7.33333 29.4571L3.66927 29.4545ZM9.77778 29.4545C9.77778 30.1083 10.3244 30.6364 11 30.6364C11.6709 30.6364 12.2201 30.1064 12.2222 29.4545H9.77778ZM17.7222 18.2318V23.9427C17.7222 24.2702 17.9922 24.6032 18.3181 24.6847L18.6385 24.7648C19.1733 24.8984 19.5556 25.3689 19.5556 25.9091C19.5556 26.5624 19.0088 27.0909 18.3307 27.0909H3.66927C2.99369 27.0909 2.44444 26.56 2.44444 25.9091C2.44444 25.3666 2.82517 24.8979 3.36026 24.7647L3.69151 24.6823C4.0153 24.6017 4.27778 24.2732 4.27778 23.9426V18.2256C4.27778 14.6364 7.28675 11.7273 11 11.7273C14.7148 11.7273 17.7222 14.6354 17.7222 18.2318Z" fill="black"/>
<path d="M18 19C22.9706 19 27 14.9706 27 10C27 5.02944 22.9706 1 18 1C13.0294 1 9 5.02944 9 10C9 14.9706 13.0294 19 18 19Z" fill="#FF0000" stroke="white"/>
<path d="M19.92 9.608C20.424 9.744 20.808 9.992 21.072 10.352C21.344 10.712 21.48 11.156 21.48 11.684C21.48 12.428 21.204 13.016 20.652 13.448C20.108 13.88 19.372 14.096 18.444 14.096C17.868 14.096 17.312 14.008 16.776 13.832C16.248 13.656 15.812 13.412 15.468 13.1L15.996 11.972C16.756 12.564 17.552 12.86 18.384 12.86C18.928 12.86 19.332 12.752 19.596 12.536C19.868 12.32 20.004 11.992 20.004 11.552C20.004 11.12 19.868 10.804 19.596 10.604C19.324 10.396 18.904 10.292 18.336 10.292H17.208V9.056H18.132C19.236 9.056 19.788 8.636 19.788 7.796C19.788 7.404 19.668 7.104 19.428 6.896C19.188 6.688 18.852 6.584 18.42 6.584C17.652 6.584 16.884 6.88 16.116 7.472L15.6 6.344C15.944 6.04 16.376 5.8 16.896 5.624C17.424 5.44 17.964 5.348 18.516 5.348C19.356 5.348 20.024 5.556 20.52 5.972C21.024 6.38 21.276 6.928 21.276 7.616C21.268 8.088 21.144 8.5 20.904 8.852C20.672 9.196 20.344 9.448 19.92 9.608Z" fill="white"/>
</svg>
